<svg width="566.4375122070312px" height="121.60000610351562px" xmlns="http://www.w3.org/2000/svg" viewBox="-33.2187561035156 14.199996948242188 566.4375122070312 121.60000610351562" style="background: rgba(0, 0, 0, 0);" preserveAspectRatio="xMidYMid"><defs><linearGradient id="editing-shiny-gradient" x1="0.04322727117869957" x2="0.9567727288213004" y1="0.2966316784620999" y2="0.7033683215379001" gradientUnits="objectBoundingBox"><stop offset="0.0" stop-color="#ffb200"></stop><stop offset="0.5" stop-color="#e10057"></stop><stop offset="1.0" stop-color="#5A1A80"></stop></linearGradient><linearGradient id="editing-shiny-gradient2" x1="0" x2="0" y1="0" y2="1"><stop offset="0.2" stop-color="#fff" stop-opacity="0.8"></stop><stop offset="0.8" stop-color="#fff" stop-opacity="0"></stop></linearGradient><filter id="editing-shiny2" x="-100%" y="-100%" width="300%" height="300%"><feMorphology operator="erode" radius="2"></feMorphology></filter><filter id="editing-shiny" x="-100%" y="-100%" width="300%" height="300%"><feFlood flood-color="#fff" result="flood"></feFlood><feConvolveMatrix in="SourceGraphic" result="conv" order="8,8" divisor="1" kernelMatrix="0 0 0 0 0 0 0 0 0 0 0 1 1 0 0 0 0 0 0 1 1 0 0 0 0 0 1 0 0 1 0 0 0 0 1 0 0 1 0 0 0 1 0 0 0 0 1 0 0 1 1 0 0 1 1 0 0 0 0 1 1 0 0 0 "></feConvolveMatrix><feOffset dx="0" dy="4" in="conv" result="offset"></feOffset><feComposite operator="in" in="flood" in2="offset" result="comp"></feComposite><feGaussianBlur in="offset" stdDeviation="3" result="shadow"></feGaussianBlur><feColorMatrix in="shadow" type="matrix" values="0.7 0 0 0 0  0 0.7 0 0 0  0 0 0.7 0 0  0 0 0 0.3 0" result="dark-shadow"></feColorMatrix><feOffset dx="0" dy="4" in="dark-shadow" result="offset-shadow"></feOffset><feOffset dx="0" dy="2" in="conv" result="offset-2"></feOffset><feComposite operator="out" in="offset" in2="offset-2" result="edge-diff"></feComposite><feGaussianBlur in="edge-diff" stdDeviation="1" result="edge-blur"></feGaussianBlur><feColorMatrix in="edge-blur" result="edge-shadow" type="matrix" values="0 0 0 0 0  0 0 0 0 0  0 0 0 0 0  0 0 0 0.5 0"></feColorMatrix><feComposite operator="in" in="edge-shadow" in2="offset" result="edge-shadow-in"></feComposite><feOffset dx="0" dy="1" in="edge-shadow-in" result="edge-shadow-final"></feOffset><feMerge result="out"><feMergeNode in="offset-shadow"></feMergeNode><feMergeNode in="comp"></feMergeNode><feMergeNode in="edge-shadow-final"></feMergeNode><feMergeNode in="SourceGraphic"></feMergeNode></feMerge></filter></defs><g filter="url(#editing-shiny)"><g transform="translate(49.13997960090637, 98.99999618530273)"><path d="M2.30-9.47L2.30-9.47L2.30-9.47Q2.30-11.97 2.94-15.17L2.94-15.17L8.13-42.24L22.27-42.24L17.15-14.98L17.15-14.98Q16.58-11.97 16.58-9.76L16.58-9.76L16.58-9.76Q16.58-7.55 17.50-6.40L17.50-6.40L17.50-6.40Q18.43-5.25 20.16-5.25L20.16-5.25L20.16-5.25Q21.89-5.25 22.98-5.70L22.98-5.70L22.98-5.70Q24.06-6.14 24.96-7.23L24.96-7.23L24.96-7.23Q26.69-9.41 27.78-14.98L27.78-14.98L32.96-42.24L42.62-42.24L37.50-15.04L37.50-15.04Q35.71-5.95 30.78-2.30L30.78-2.30L30.78-2.30Q25.98 1.28 16.51 1.28L16.51 1.28L16.51 1.28Q9.41 1.28 5.63-1.79L5.63-1.79L5.63-1.79Q2.30-4.48 2.30-9.47ZM63.94-17.98L63.94-17.98L63.94-17.98Q66.24-22.08 66.24-26.24L66.24-26.24L66.24-26.24Q66.24-28.99 64.26-28.99L64.26-28.99L64.26-28.99Q62.72-28.99 61.12-26.37L61.12-26.37L61.12-26.37Q59.46-23.74 58.94-20.35L58.94-20.35L55.62 0L42.37 1.28L48.90-32.64L59.46-33.92L58.30-27.46L58.30-27.46Q61.44-33.92 68.48-33.92L68.48-33.92L68.48-33.92Q72.19-33.92 74.21-32L74.21-32L74.21-32Q76.22-30.08 76.22-26.14L76.22-26.14L76.22-26.14Q76.22-22.21 73.63-19.71L73.63-19.71L73.63-19.71Q71.04-17.22 66.62-17.22L66.62-17.22L66.62-17.22Q64.70-17.22 63.94-17.98ZM100.48-31.55L100.48-31.55L100.48-31.55Q102.59-33.92 106.24-33.92L106.24-33.92L106.24-33.92Q108.48-33.92 110.21-32.70L110.21-32.70L110.21-32.70Q111.94-31.49 111.94-29.22L111.94-29.22L111.94-29.22Q111.94-26.94 111.23-24.51L111.23-24.51L111.23-24.51Q110.53-22.08 109.44-19.58L109.44-19.58L109.44-19.58Q107.26-14.72 104.26-10.69L104.26-10.69L104.26-10.69Q100.03-4.86 95.97-1.79L95.97-1.79L95.97-1.79Q91.90 1.28 87.49 1.28L87.49 1.28L87.49 1.28Q83.90 1.28 81.73 0.45L81.73 0.45L81.73 0.45Q81.34-12.99 80.86-17.79L80.86-17.79L80.86-17.79Q80.38-22.59 80-25.22L80-25.22L80-25.22Q79.36-30.34 77.44-31.55L77.44-31.55L77.44-31.55Q78.91-32.83 80.35-33.38L80.35-33.38L80.35-33.38Q81.79-33.92 84.77-33.92L84.77-33.92L84.77-33.92Q87.74-33.92 89.86-31.58L89.86-31.58L89.86-31.58Q91.97-29.25 92.38-25.12L92.38-25.12L92.38-25.12Q92.80-20.99 92.80-16L92.80-16L92.80-16Q92.80-11.01 92.42-4.99L92.42-4.99L92.42-4.99Q94.40-6.40 96.51-10.69L96.51-10.69L96.51-10.69Q99.39-16.64 100.42-23.81L100.42-23.81L100.42-23.81Q100.74-25.98 100.74-28.29L100.74-28.29L100.74-28.29Q100.74-30.59 100.48-31.55ZM116.45-1.92L116.45-1.92L116.45-1.92Q114.94-3.58 114.27-6.21L114.27-6.21L114.27-6.21Q113.60-8.83 113.60-13.12L113.60-13.12L113.60-13.12Q113.60-17.41 115.07-21.31L115.07-21.31L115.07-21.31Q116.54-25.22 119.23-28.03L119.23-28.03L119.23-28.03Q124.74-33.92 133.82-33.92L133.82-33.92L133.82-33.92Q137.09-33.92 139.46-32.83L139.46-32.83L150.40-33.92L145.66-8.96L145.66-8.96Q145.47-8.19 145.47-6.78L145.47-6.78L145.47-6.78Q145.47-5.38 146.34-4.48L146.34-4.48L146.34-4.48Q147.20-3.58 148.48-3.46L148.48-3.46L148.48-3.46Q147.84-1.28 145.50 0L145.50 0L145.50 0Q143.17 1.28 140.54 1.28L140.54 1.28L140.54 1.28Q137.92 1.28 136.16 0.29L136.16 0.29L136.16 0.29Q134.40-0.70 133.89-2.37L133.89-2.37L133.89-2.37Q132.86-0.77 130.69 0.26L130.69 0.26L130.69 0.26Q128.51 1.28 125.60 1.28L125.60 1.28L125.60 1.28Q122.69 1.28 120.32 0.51L120.32 0.51L120.32 0.51Q117.95-0.26 116.45-1.92ZM129.95-27.90L129.95-27.90L129.95-27.90Q129.22-26.75 128.58-24.80L128.58-24.80L128.58-24.80Q127.94-22.85 126.88-17.63L126.88-17.63L126.88-17.63Q125.82-12.42 125.82-8.70L125.82-8.70L125.82-8.70Q125.82-4.99 126.40-3.90L126.40-3.90L126.40-3.90Q126.98-2.82 128-2.82L128-2.82L128-2.82Q130.05-2.82 131.55-4.77L131.55-4.77L131.55-4.77Q133.06-6.72 133.63-10.18L133.63-10.18L137.02-28.93L137.02-28.93Q135.68-30.08 134.11-30.08L134.11-30.08L134.11-30.08Q132.54-30.08 131.62-29.57L131.62-29.57L131.62-29.57Q130.69-29.06 129.95-27.90ZM172.99-22.46L172.99-22.46L172.99-22.46Q173.89-24.83 173.89-26.88L173.89-26.88L173.89-26.88Q173.89-30.66 170.82-30.66L170.82-30.66L170.82-30.66Q169.22-30.66 167.90-29.22L167.90-29.22L167.90-29.22Q166.59-27.78 166.59-25.98L166.59-25.98L166.59-25.98Q166.59-24.70 167.62-23.68L167.62-23.68L167.62-23.68Q169.09-22.27 172.86-19.97L172.86-19.97L172.86-19.97Q176.64-17.66 178.08-15.78L178.08-15.78L178.08-15.78Q179.52-13.89 179.52-11.30L179.52-11.30L179.52-11.30Q179.52-8.70 178.27-6.34L178.27-6.34L178.27-6.34Q177.02-3.97 174.78-2.30L174.78-2.30L174.78-2.30Q169.98 1.28 162.30 1.28L162.30 1.28L162.30 1.28Q158.14 1.28 154.94-0.90L154.94-0.90L154.94-0.90Q151.74-3.01 151.74-5.50L151.74-5.50L151.74-5.50Q151.74-8 153.57-9.47L153.57-9.47L153.57-9.47Q155.39-10.94 158.08-10.94L158.08-10.94L158.08-10.94Q160.77-10.94 162.43-9.92L162.43-9.92L162.43-9.92Q161.60-7.81 161.60-6.40L161.60-6.40L161.60-6.40Q161.60-2.18 165.18-2.18L165.18-2.18L165.18-2.18Q166.72-2.18 167.74-3.14L167.74-3.14L167.74-3.14Q168.77-4.10 168.77-5.76L168.77-5.76L168.77-5.76Q168.77-9.02 163.26-12.48L163.26-12.48L163.26-12.48Q158.78-15.42 157.76-16.58L157.76-16.58L157.76-16.58Q156.03-18.62 156.03-21.18L156.03-21.18L156.03-21.18Q156.03-23.74 157.25-26.18L157.25-26.18L157.25-26.18Q158.46-28.61 160.70-30.34L160.70-30.34L160.70-30.34Q165.38-33.92 173.50-33.92L173.50-33.92L173.50-33.92Q177.66-33.92 180.13-32.26L180.13-32.26L180.13-32.26Q182.59-30.59 182.59-27.78L182.59-27.78L182.59-27.78Q182.59-24.96 180.90-23.36L180.90-23.36L180.90-23.36Q179.20-21.76 176.13-21.76L176.13-21.76L176.13-21.76Q174.02-21.76 172.99-22.46ZM217.15-7.10L217.15-7.10L217.15-7.10Q217.15-4.29 220.03-3.46L220.03-3.46L220.03-3.46Q219.33-1.09 216.58 0.19L216.58 0.19L216.58 0.19Q214.27 1.28 211.74 1.28L211.74 1.28L211.74 1.28Q209.22 1.28 207.90 0.61L207.90 0.61L207.90 0.61Q206.59-0.06 205.89-1.15L205.89-1.15L205.89-1.15Q204.74-2.82 204.74-5.95L204.74-5.95L204.74-5.95Q204.74-7.81 205.76-12.93L205.76-12.93L206.66-17.79L206.66-17.79Q207.74-23.36 207.74-25.41L207.74-25.41L207.74-25.41Q207.74-28.99 205.76-28.99L205.76-28.99L205.76-28.99Q203.26-28.99 201.66-25.34L201.66-25.34L201.66-25.34Q201.02-23.94 200.58-21.82L200.58-21.82L196.22 0L183.36 1.28L192.38-44.80L205.25-46.08L204.74-43.52L204.74-43.52Q202.94-33.66 201.41-30.34L201.41-30.34L201.41-30.34Q204.99-33.92 211.58-33.92L211.58-33.92L211.58-33.92Q218.56-33.92 219.84-29.31L219.84-29.31L219.84-29.31Q220.29-27.84 220.29-26.56L220.29-26.56L220.29-26.56Q220.29-25.28 220.19-24.29L220.19-24.29L220.19-24.29Q220.10-23.30 219.78-21.50L219.78-21.50L218.94-16.90L217.47-9.66L217.47-9.66Q217.15-8.19 217.15-7.10ZM240.58-3.52L240.58-3.52L240.58-3.52Q238.59 1.28 232.26 1.28L232.26 1.28L232.26 1.28Q228.99 1.28 226.94-0.96L226.94-0.96L226.94-0.96Q225.22-2.94 225.22-4.93L225.22-4.93L225.22-4.93Q225.22-10.11 227.58-20.22L227.58-20.22L229.95-32.64L242.94-33.92L239.04-13.70L239.04-13.70Q237.95-8.96 237.95-7.30L237.95-7.30L237.95-7.30Q237.95-3.65 240.58-3.52ZM231.10-41.54L231.10-41.54L231.10-41.54Q231.10-44.03 233.18-45.38L233.18-45.38L233.18-45.38Q235.26-46.72 238.27-46.72L238.27-46.72L238.27-46.72Q241.28-46.72 243.10-45.38L243.10-45.38L243.10-45.38Q244.93-44.03 244.93-41.54L244.93-41.54L244.93-41.54Q244.93-39.04 242.91-37.76L242.91-37.76L242.91-37.76Q240.90-36.48 237.89-36.48L237.89-36.48L237.89-36.48Q234.88-36.48 232.99-37.76L232.99-37.76L232.99-37.76Q231.10-39.04 231.10-41.54ZM272.45 0L258.50 0L266.62-42.24L280.70-42.24L272.45 0ZM309.18 1.28L309.18 1.28L309.18 1.28Q301.44 1.28 301.44-4.74L301.44-4.74L301.44-4.74Q301.50-6.40 302.02-9.22L302.02-9.22L303.17-15.10L303.17-15.10Q304.90-23.42 304.90-25.28L304.90-25.28L304.90-25.28Q304.90-28.99 302.72-28.99L302.72-28.99L302.72-28.99Q299.07-28.99 297.15-19.46L297.15-19.46L293.38 0L280.51 1.28L287.17-32.70L297.66-33.92L296.64-27.65L296.64-27.65Q299.65-33.92 308.86-33.92L308.86-33.92L308.86-33.92Q313.34-33.92 315.23-32.03L315.23-32.03L315.23-32.03Q317.12-30.14 317.12-25.92L317.12-25.92L317.12-25.92Q317.12-21.95 315.07-12.67L315.07-12.67L315.07-12.67Q314.11-8.51 314.11-6.94L314.11-6.94L314.11-6.94Q314.11-5.38 314.98-4.48L314.98-4.48L314.98-4.48Q315.84-3.58 317.12-3.46L317.12-3.46L317.12-3.46Q316.48-1.28 314.27 0L314.27 0L314.27 0Q312.06 1.28 309.18 1.28ZM342.40-33.92L342.40-33.92L342.40-33.92Q344.70-33.92 346.50-33.41L346.50-33.41L346.50-33.41Q346.56-33.66 346.69-34.37L346.69-34.37L347.01-36.35L347.01-36.35Q347.26-37.63 347.65-39.74L347.65-39.74L348.67-44.80L361.41-46.08L354.30-8.96L354.30-8.96Q354.24-8.58 354.24-7.94L354.24-7.94L354.24-6.91L354.24-6.91Q354.24-5.50 354.94-4.45L354.94-4.45L354.94-4.45Q355.65-3.39 356.80-3.39L356.80-3.39L356.80-3.39Q355.52-0.38 351.62 0.90L351.62 0.90L351.62 0.90Q350.27 1.28 348.38 1.28L348.38 1.28L348.38 1.28Q346.50 1.28 344.77 0.29L344.77 0.29L344.77 0.29Q343.04-0.70 342.53-2.37L342.53-2.37L342.53-2.37Q341.50-0.70 339.46 0.29L339.46 0.29L339.46 0.29Q337.41 1.28 334.43 1.28L334.43 1.28L334.43 1.28Q331.46 1.28 328.99 0.51L328.99 0.51L328.99 0.51Q326.53-0.26 324.99-1.92L324.99-1.92L324.99-1.92Q322.18-5.18 322.18-12.61L322.18-12.61L322.18-12.61Q322.18-22.21 327.81-28.03L327.81-28.03L327.81-28.03Q333.44-33.92 342.40-33.92ZM341.95-30.08L341.95-30.08L341.95-30.08Q339.58-30.08 338.30-27.52L338.30-27.52L338.30-27.52Q337.02-24.96 335.71-18.62L335.71-18.62L335.71-18.62Q334.40-12.29 334.40-6.59L334.40-6.59L334.40-6.59Q334.40-2.69 336.70-2.69L336.70-2.69L336.70-2.69Q338.75-2.69 340.19-4.74L340.19-4.74L340.19-4.74Q341.63-6.78 342.21-10.18L342.21-10.18L345.66-28.93L345.66-28.93Q344.32-30.08 341.95-30.08ZM382.78-2.69L382.78-2.69L382.78-2.69Q379.71 1.28 372.10 1.28L372.10 1.28L372.10 1.28Q368.13 1.28 365.25-1.12L365.25-1.12L365.25-1.12Q362.37-3.52 362.37-6.98L362.37-6.98L362.37-6.98Q362.37-8.90 362.56-9.86L362.56-9.86L366.85-32.64L379.84-33.92L375.17-9.22L375.17-9.22Q374.91-7.81 374.91-6.98L374.91-6.98L374.91-6.98Q374.91-3.26 377.15-3.26L377.15-3.26L377.15-3.26Q379.65-3.26 381.44-6.66L381.44-6.66L381.44-6.66Q382.02-7.74 382.27-9.15L382.27-9.15L386.82-32.64L399.42-33.92L394.69-8.96L394.69-8.96Q394.50-8 394.50-6.98L394.50-6.98L394.50-6.98Q394.50-5.95 395.07-4.83L395.07-4.83L395.07-4.83Q395.65-3.71 397.50-3.46L397.50-3.46L397.50-3.46Q397.12-1.92 395.78-0.90L395.78-0.90L395.78-0.90Q392.96 1.28 389.92 1.28L389.92 1.28L389.92 1.28Q386.88 1.28 385.09 0.19L385.09 0.19L385.09 0.19Q383.30-0.90 382.78-2.69Z" fill="url(#editing-shiny-gradient)"></path></g></g><g filter="url(#editing-shiny2)"><g transform="translate(49.139994859695435, 99.00000381469727)"><path d="M2.30-9.47L2.30-9.47L2.30-9.47Q2.30-11.97 2.94-15.17L2.94-15.17L8.13-42.24L22.27-42.24L17.15-14.98L17.15-14.98Q16.58-11.97 16.58-9.76L16.58-9.76L16.58-9.76Q16.58-7.55 17.50-6.40L17.50-6.40L17.50-6.40Q18.43-5.25 20.16-5.25L20.16-5.25L20.16-5.25Q21.89-5.25 22.98-5.70L22.98-5.70L22.98-5.70Q24.06-6.14 24.96-7.23L24.96-7.23L24.96-7.23Q26.69-9.41 27.78-14.98L27.78-14.98L32.96-42.24L42.62-42.24L37.50-15.04L37.50-15.04Q35.71-5.95 30.78-2.30L30.78-2.30L30.78-2.30Q25.98 1.28 16.51 1.28L16.51 1.28L16.51 1.28Q9.41 1.28 5.63-1.79L5.63-1.79L5.63-1.79Q2.30-4.48 2.30-9.47ZM63.94-17.98L63.94-17.98L63.94-17.98Q66.24-22.08 66.24-26.24L66.24-26.24L66.24-26.24Q66.24-28.99 64.26-28.99L64.26-28.99L64.26-28.99Q62.72-28.99 61.12-26.37L61.12-26.37L61.12-26.37Q59.46-23.74 58.94-20.35L58.94-20.35L55.62 0L42.37 1.28L48.90-32.64L59.46-33.92L58.30-27.46L58.30-27.46Q61.44-33.92 68.48-33.92L68.48-33.92L68.48-33.92Q72.19-33.92 74.21-32L74.21-32L74.21-32Q76.22-30.08 76.22-26.14L76.22-26.14L76.22-26.14Q76.22-22.21 73.63-19.71L73.63-19.71L73.63-19.71Q71.04-17.22 66.62-17.22L66.62-17.22L66.62-17.22Q64.70-17.22 63.94-17.98ZM100.48-31.55L100.48-31.55L100.48-31.55Q102.59-33.92 106.24-33.92L106.24-33.92L106.24-33.92Q108.48-33.92 110.21-32.70L110.21-32.70L110.21-32.70Q111.94-31.49 111.94-29.22L111.94-29.22L111.94-29.22Q111.94-26.94 111.23-24.51L111.23-24.51L111.23-24.51Q110.53-22.08 109.44-19.58L109.44-19.58L109.44-19.58Q107.26-14.72 104.26-10.69L104.26-10.69L104.26-10.69Q100.03-4.86 95.97-1.79L95.97-1.79L95.97-1.79Q91.90 1.28 87.49 1.28L87.49 1.28L87.49 1.28Q83.90 1.28 81.73 0.45L81.73 0.45L81.73 0.45Q81.34-12.99 80.86-17.79L80.86-17.79L80.86-17.79Q80.38-22.59 80-25.22L80-25.22L80-25.22Q79.36-30.34 77.44-31.55L77.44-31.55L77.44-31.55Q78.91-32.83 80.35-33.38L80.35-33.38L80.35-33.38Q81.79-33.92 84.77-33.92L84.77-33.92L84.77-33.92Q87.74-33.92 89.86-31.58L89.86-31.58L89.86-31.58Q91.97-29.25 92.38-25.12L92.38-25.12L92.38-25.12Q92.80-20.99 92.80-16L92.80-16L92.80-16Q92.80-11.01 92.42-4.99L92.42-4.99L92.42-4.99Q94.40-6.40 96.51-10.69L96.51-10.69L96.51-10.69Q99.39-16.64 100.42-23.81L100.42-23.81L100.42-23.81Q100.74-25.98 100.74-28.29L100.74-28.29L100.74-28.29Q100.74-30.59 100.48-31.55ZM116.45-1.92L116.45-1.92L116.45-1.92Q114.94-3.58 114.27-6.21L114.27-6.21L114.27-6.21Q113.60-8.83 113.60-13.12L113.60-13.12L113.60-13.12Q113.60-17.41 115.07-21.31L115.07-21.31L115.07-21.31Q116.54-25.22 119.23-28.03L119.23-28.03L119.23-28.03Q124.74-33.92 133.82-33.92L133.82-33.92L133.82-33.92Q137.09-33.92 139.46-32.83L139.46-32.83L150.40-33.92L145.66-8.96L145.66-8.96Q145.47-8.19 145.47-6.78L145.47-6.78L145.47-6.78Q145.47-5.38 146.34-4.48L146.34-4.48L146.34-4.48Q147.20-3.58 148.48-3.46L148.48-3.46L148.48-3.46Q147.84-1.28 145.50 0L145.50 0L145.50 0Q143.17 1.28 140.54 1.28L140.54 1.28L140.54 1.28Q137.92 1.28 136.16 0.29L136.16 0.29L136.16 0.29Q134.40-0.70 133.89-2.37L133.89-2.37L133.89-2.37Q132.86-0.77 130.69 0.26L130.69 0.26L130.69 0.26Q128.51 1.28 125.60 1.28L125.60 1.28L125.60 1.28Q122.69 1.28 120.32 0.51L120.32 0.51L120.32 0.51Q117.95-0.26 116.45-1.92ZM129.95-27.90L129.95-27.90L129.95-27.90Q129.22-26.75 128.58-24.80L128.58-24.80L128.58-24.80Q127.94-22.85 126.88-17.63L126.88-17.63L126.88-17.63Q125.82-12.42 125.82-8.70L125.82-8.70L125.82-8.70Q125.82-4.99 126.40-3.90L126.40-3.90L126.40-3.90Q126.98-2.82 128-2.82L128-2.82L128-2.82Q130.05-2.82 131.55-4.77L131.55-4.77L131.55-4.77Q133.06-6.72 133.63-10.18L133.63-10.18L137.02-28.93L137.02-28.93Q135.68-30.08 134.11-30.08L134.11-30.08L134.11-30.08Q132.54-30.08 131.62-29.57L131.62-29.57L131.62-29.57Q130.69-29.06 129.95-27.90ZM172.99-22.46L172.99-22.46L172.99-22.46Q173.89-24.83 173.89-26.88L173.89-26.88L173.89-26.88Q173.89-30.66 170.82-30.66L170.82-30.66L170.82-30.66Q169.22-30.66 167.90-29.22L167.90-29.22L167.90-29.22Q166.59-27.78 166.59-25.98L166.59-25.98L166.59-25.98Q166.59-24.70 167.62-23.68L167.62-23.68L167.62-23.68Q169.09-22.27 172.86-19.97L172.86-19.97L172.86-19.97Q176.64-17.66 178.08-15.78L178.08-15.78L178.08-15.78Q179.52-13.89 179.52-11.30L179.52-11.30L179.52-11.30Q179.52-8.70 178.27-6.34L178.27-6.34L178.27-6.34Q177.02-3.97 174.78-2.30L174.78-2.30L174.78-2.30Q169.98 1.28 162.30 1.28L162.30 1.28L162.30 1.28Q158.14 1.28 154.94-0.90L154.94-0.90L154.94-0.90Q151.74-3.01 151.74-5.50L151.74-5.50L151.74-5.50Q151.74-8 153.57-9.47L153.57-9.47L153.57-9.47Q155.39-10.94 158.08-10.94L158.08-10.94L158.08-10.94Q160.77-10.94 162.43-9.92L162.43-9.92L162.43-9.92Q161.60-7.81 161.60-6.40L161.60-6.40L161.60-6.40Q161.60-2.18 165.18-2.18L165.18-2.18L165.18-2.18Q166.72-2.18 167.74-3.14L167.74-3.14L167.74-3.14Q168.77-4.10 168.77-5.76L168.77-5.76L168.77-5.76Q168.77-9.02 163.26-12.48L163.26-12.48L163.26-12.48Q158.78-15.42 157.76-16.58L157.76-16.58L157.76-16.58Q156.03-18.62 156.03-21.18L156.03-21.18L156.03-21.18Q156.03-23.74 157.25-26.18L157.25-26.18L157.25-26.18Q158.46-28.61 160.70-30.34L160.70-30.34L160.70-30.34Q165.38-33.92 173.50-33.92L173.50-33.92L173.50-33.92Q177.66-33.92 180.13-32.26L180.13-32.26L180.13-32.26Q182.59-30.59 182.59-27.78L182.59-27.78L182.59-27.78Q182.59-24.96 180.90-23.36L180.90-23.36L180.90-23.36Q179.20-21.76 176.13-21.76L176.13-21.76L176.13-21.76Q174.02-21.76 172.99-22.46ZM217.15-7.10L217.15-7.10L217.15-7.10Q217.15-4.29 220.03-3.46L220.03-3.46L220.03-3.46Q219.33-1.09 216.58 0.19L216.58 0.19L216.58 0.19Q214.27 1.28 211.74 1.28L211.74 1.28L211.74 1.28Q209.22 1.28 207.90 0.61L207.90 0.61L207.90 0.61Q206.59-0.06 205.89-1.15L205.89-1.15L205.89-1.15Q204.74-2.82 204.74-5.95L204.74-5.95L204.74-5.95Q204.74-7.81 205.76-12.93L205.76-12.93L206.66-17.79L206.66-17.79Q207.74-23.36 207.74-25.41L207.74-25.41L207.74-25.41Q207.74-28.99 205.76-28.99L205.76-28.99L205.76-28.99Q203.26-28.99 201.66-25.34L201.66-25.34L201.66-25.34Q201.02-23.94 200.58-21.82L200.58-21.82L196.22 0L183.36 1.28L192.38-44.80L205.25-46.08L204.74-43.52L204.74-43.52Q202.94-33.66 201.41-30.34L201.41-30.34L201.41-30.34Q204.99-33.92 211.58-33.92L211.58-33.92L211.58-33.92Q218.56-33.92 219.84-29.31L219.84-29.31L219.84-29.31Q220.29-27.84 220.29-26.56L220.29-26.56L220.29-26.56Q220.29-25.28 220.19-24.29L220.19-24.29L220.19-24.29Q220.10-23.30 219.78-21.50L219.78-21.50L218.94-16.90L217.47-9.66L217.47-9.66Q217.15-8.19 217.15-7.10ZM240.58-3.52L240.58-3.52L240.58-3.52Q238.59 1.28 232.26 1.28L232.26 1.28L232.26 1.28Q228.99 1.28 226.94-0.96L226.94-0.96L226.94-0.96Q225.22-2.94 225.22-4.93L225.22-4.93L225.22-4.93Q225.22-10.11 227.58-20.22L227.58-20.22L229.95-32.64L242.94-33.92L239.04-13.70L239.04-13.70Q237.95-8.96 237.95-7.30L237.95-7.30L237.95-7.30Q237.95-3.65 240.58-3.52ZM231.10-41.54L231.10-41.54L231.10-41.54Q231.10-44.03 233.18-45.38L233.18-45.38L233.18-45.38Q235.26-46.72 238.27-46.72L238.27-46.72L238.27-46.72Q241.28-46.72 243.10-45.38L243.10-45.38L243.10-45.38Q244.93-44.03 244.93-41.54L244.93-41.54L244.93-41.54Q244.93-39.04 242.91-37.76L242.91-37.76L242.91-37.76Q240.90-36.48 237.89-36.48L237.89-36.48L237.89-36.48Q234.88-36.48 232.99-37.76L232.99-37.76L232.99-37.76Q231.10-39.04 231.10-41.54ZM272.45 0L258.50 0L266.62-42.24L280.70-42.24L272.45 0ZM309.18 1.28L309.18 1.28L309.18 1.28Q301.44 1.28 301.44-4.74L301.44-4.74L301.44-4.74Q301.50-6.40 302.02-9.22L302.02-9.22L303.17-15.10L303.17-15.10Q304.90-23.42 304.90-25.28L304.90-25.28L304.90-25.28Q304.90-28.99 302.72-28.99L302.72-28.99L302.72-28.99Q299.07-28.99 297.15-19.46L297.15-19.46L293.38 0L280.51 1.28L287.17-32.70L297.66-33.92L296.64-27.65L296.64-27.65Q299.65-33.92 308.86-33.92L308.86-33.92L308.86-33.92Q313.34-33.92 315.23-32.03L315.23-32.03L315.23-32.03Q317.12-30.14 317.12-25.92L317.12-25.92L317.12-25.92Q317.12-21.95 315.07-12.67L315.07-12.67L315.07-12.67Q314.11-8.51 314.11-6.94L314.11-6.94L314.11-6.94Q314.11-5.38 314.98-4.48L314.98-4.48L314.98-4.48Q315.84-3.58 317.12-3.46L317.12-3.46L317.12-3.46Q316.48-1.28 314.27 0L314.27 0L314.27 0Q312.06 1.28 309.18 1.28ZM342.40-33.92L342.40-33.92L342.40-33.92Q344.70-33.92 346.50-33.41L346.50-33.41L346.50-33.41Q346.56-33.66 346.69-34.37L346.69-34.37L347.01-36.35L347.01-36.35Q347.26-37.63 347.65-39.74L347.65-39.74L348.67-44.80L361.41-46.08L354.30-8.96L354.30-8.96Q354.24-8.58 354.24-7.94L354.24-7.94L354.24-6.91L354.24-6.91Q354.24-5.50 354.94-4.45L354.94-4.45L354.94-4.45Q355.65-3.39 356.80-3.39L356.80-3.39L356.80-3.39Q355.52-0.38 351.62 0.90L351.62 0.90L351.62 0.90Q350.27 1.28 348.38 1.28L348.38 1.28L348.38 1.28Q346.50 1.28 344.77 0.29L344.77 0.29L344.77 0.29Q343.04-0.70 342.53-2.37L342.53-2.37L342.53-2.37Q341.50-0.70 339.46 0.29L339.46 0.29L339.46 0.29Q337.41 1.28 334.43 1.28L334.43 1.28L334.43 1.28Q331.46 1.28 328.99 0.51L328.99 0.51L328.99 0.51Q326.53-0.26 324.99-1.92L324.99-1.92L324.99-1.92Q322.18-5.18 322.18-12.61L322.18-12.61L322.18-12.61Q322.18-22.21 327.81-28.03L327.81-28.03L327.81-28.03Q333.44-33.92 342.40-33.92ZM341.95-30.08L341.95-30.08L341.95-30.08Q339.58-30.08 338.30-27.52L338.30-27.52L338.30-27.52Q337.02-24.96 335.71-18.62L335.71-18.62L335.71-18.62Q334.40-12.29 334.40-6.59L334.40-6.59L334.40-6.59Q334.40-2.69 336.70-2.69L336.70-2.69L336.70-2.69Q338.75-2.69 340.19-4.74L340.19-4.74L340.19-4.74Q341.63-6.78 342.21-10.18L342.21-10.18L345.66-28.93L345.66-28.93Q344.32-30.08 341.95-30.08ZM382.78-2.69L382.78-2.69L382.78-2.69Q379.71 1.28 372.10 1.28L372.10 1.28L372.10 1.28Q368.13 1.28 365.25-1.12L365.25-1.12L365.25-1.12Q362.37-3.52 362.37-6.98L362.37-6.98L362.37-6.98Q362.37-8.90 362.56-9.86L362.56-9.86L366.85-32.64L379.84-33.92L375.17-9.22L375.17-9.22Q374.91-7.81 374.91-6.98L374.91-6.98L374.91-6.98Q374.91-3.26 377.15-3.26L377.15-3.26L377.15-3.26Q379.65-3.26 381.44-6.66L381.44-6.66L381.44-6.66Q382.02-7.74 382.27-9.15L382.27-9.15L386.82-32.64L399.42-33.92L394.69-8.96L394.69-8.96Q394.50-8 394.50-6.98L394.50-6.98L394.50-6.98Q394.50-5.95 395.07-4.83L395.07-4.83L395.07-4.83Q395.65-3.71 397.50-3.46L397.50-3.46L397.50-3.46Q397.12-1.92 395.78-0.90L395.78-0.90L395.78-0.90Q392.96 1.28 389.92 1.28L389.92 1.28L389.92 1.28Q386.88 1.28 385.09 0.19L385.09 0.19L385.09 0.19Q383.30-0.90 382.78-2.69Z" fill="url(#editing-shiny-gradient2)"></path></g></g><style>text {
  font-size: 64px;
  font-family: Arial Black;
  dominant-baseline: central;
  text-anchor: middle;
}</style></svg>